<svg width="50" height="50" viewBox="0 0 50 50" fill="none" xmlns="http://www.w3.org/2000/svg">
<path d="M41.4544 33.3333H16.4544C14.5169 33.3333 13.5482 33.3333 12.7534 33.5462C10.5966 34.1241 8.9119 35.8089 8.33398 37.9656" stroke="white" stroke-width="2"/>
<path d="M16.666 14.5833H33.3327" stroke="white" stroke-width="2" stroke-linecap="round"/>
<path d="M16.666 21.875H27.0827" stroke="white" stroke-width="2" stroke-linecap="round"/>
<path d="M40.6243 39.5833H16.666" stroke="white" stroke-width="2" stroke-linecap="round"/>
<path d="M20.834 45.8334C14.9414 45.8334 11.9952 45.8334 10.1646 44.0027C8.33398 42.1721 8.33398 39.2259 8.33398 33.3334V16.6667C8.33398 10.7741 8.33398 7.82785 10.1646 5.99727C11.9952 4.16669 14.9414 4.16669 20.834 4.16669H29.1673C35.0598 4.16669 38.0061 4.16669 39.8367 5.99727C41.6673 7.82785 41.6673 10.7741 41.6673 16.6667M29.1673 45.8334C35.0598 45.8334 38.0061 45.8334 39.8367 44.0027C41.6673 42.1721 41.6673 39.2259 41.6673 33.3334V25" stroke="white" stroke-width="2" stroke-linecap="round"/>
</svg>
