<svg width="50" height="50" viewBox="0 0 50 50" fill="none" xmlns="http://www.w3.org/2000/svg">
<path d="M47.6562 25.7813C47.6541 23.7763 47.0598 21.8166 45.9479 20.1483C44.836 18.4799 43.256 17.1771 41.4063 16.4035L41.4062 14.0625C41.4067 12.1011 40.736 10.1986 39.5057 8.6711C38.2753 7.14358 36.5593 6.08301 34.6429 5.66559C32.7264 5.24816 30.7248 5.49902 28.9707 6.37649C27.2165 7.25395 25.8153 8.70519 25 10.4891C24.1847 8.70519 22.7835 7.25395 21.0293 6.37649C19.2752 5.49902 17.2736 5.24816 15.3571 5.66559C13.4406 6.08301 11.7247 7.14358 10.4943 8.6711C9.264 10.1986 8.59332 12.1011 8.59375 14.0625L8.59365 16.4035C6.74278 17.1749 5.16162 18.4769 4.04942 20.1454C2.93722 21.8138 2.34374 23.7742 2.34375 25.7794C2.34376 27.7846 2.93726 29.7449 4.04948 31.4134C5.1617 33.0819 6.74286 34.3838 8.59375 35.1552V35.9375C8.59332 37.8989 9.264 39.8014 10.4943 41.3289C11.7247 42.8564 13.4406 43.917 15.3571 44.3344C17.2736 44.7519 19.2752 44.501 21.0293 43.6235C22.7835 42.7461 24.1847 41.2948 25 39.5109C25.8153 41.2948 27.2165 42.7461 28.9707 43.6235C30.7248 44.501 32.7264 44.7519 34.6429 44.3344C36.5593 43.917 38.2753 42.8564 39.5057 41.3289C40.736 39.8014 41.4067 37.8989 41.4062 35.9375V35.1552C43.2558 34.3824 44.8357 33.0804 45.9477 31.4126C47.0597 29.7449 47.6541 27.7857 47.6562 25.7813ZM17.1875 42.9688C15.3233 42.9667 13.5361 42.2252 12.218 40.907C10.8998 39.5889 10.1583 37.8017 10.1562 35.9375V35.6615C10.9241 35.8444 11.7107 35.937 12.5 35.9375H14.0625C14.2697 35.9375 14.4684 35.8552 14.6149 35.7087C14.7614 35.5622 14.8437 35.3635 14.8437 35.1563C14.8437 34.9491 14.7614 34.7503 14.6149 34.6038C14.4684 34.4573 14.2697 34.375 14.0625 34.375H12.5C10.4726 34.3746 8.51067 33.6577 6.96077 32.3508C5.41087 31.0439 4.3728 29.2312 4.03001 27.233C3.68721 25.2349 4.06175 23.1798 5.08744 21.4311C6.11313 19.6823 7.72395 18.3524 9.63526 17.6764C9.78758 17.6225 9.91945 17.5227 10.0127 17.3908C10.106 17.2589 10.1561 17.1013 10.1561 16.9397L10.1562 14.0625C10.1562 12.1977 10.897 10.4093 12.2157 9.09067C13.5343 7.77205 15.3227 7.03126 17.1875 7.03126C19.0523 7.03126 20.8407 7.77205 22.1593 9.09067C23.478 10.4093 24.2187 12.1977 24.2187 14.0625V31.0056C23.4272 29.8752 22.3749 28.9522 21.1509 28.3148C19.927 27.6774 18.5675 27.3443 17.1875 27.3438C16.9803 27.3438 16.7816 27.4261 16.6351 27.5726C16.4886 27.7191 16.4062 27.9178 16.4062 28.125C16.4062 28.3322 16.4886 28.5309 16.6351 28.6774C16.7816 28.824 16.9803 28.9063 17.1875 28.9063C19.0523 28.9063 20.8407 29.6471 22.1593 30.9657C23.478 32.2843 24.2187 34.0727 24.2187 35.9375C24.2187 37.8023 23.478 39.5907 22.1593 40.9094C20.8407 42.228 19.0523 42.9688 17.1875 42.9688ZM37.5 34.375H35.9375C35.7303 34.375 35.5316 34.4573 35.3851 34.6038C35.2386 34.7503 35.1562 34.9491 35.1562 35.1563C35.1562 35.3635 35.2386 35.5622 35.3851 35.7087C35.5316 35.8552 35.7303 35.9375 35.9375 35.9375H37.5C38.2893 35.937 39.0759 35.8444 39.8438 35.6615V35.9375C39.8438 37.3282 39.4314 38.6876 38.6588 39.8439C37.8862 41.0001 36.788 41.9014 35.5032 42.4335C34.2184 42.9657 32.8047 43.105 31.4408 42.8337C30.0768 42.5624 28.824 41.8927 27.8407 40.9094C26.8573 39.926 26.1877 38.6732 25.9164 37.3092C25.645 35.9453 25.7843 34.5316 26.3165 33.2468C26.8486 31.962 27.7499 30.8638 28.9061 30.0912C30.0624 29.3186 31.4219 28.9063 32.8125 28.9063C33.0197 28.9063 33.2184 28.824 33.3649 28.6774C33.5114 28.5309 33.5938 28.3322 33.5938 28.125C33.5938 27.9178 33.5114 27.7191 33.3649 27.5726C33.2184 27.4261 33.0197 27.3438 32.8125 27.3438C31.4325 27.3443 30.073 27.6774 28.8491 28.3148C27.6251 28.9522 26.5728 29.8752 25.7812 31.0056V14.0625C25.7812 12.1977 26.522 10.4093 27.8407 9.09067C29.1593 7.77205 30.9477 7.03126 32.8125 7.03126C34.6773 7.03126 36.4657 7.77205 37.7843 9.09067C39.103 10.4093 39.8438 12.1977 39.8438 14.0625L39.8439 16.9397C39.8439 17.1013 39.894 17.2589 39.9873 17.3908C40.0806 17.5227 40.2124 17.6225 40.3647 17.6764C42.2761 18.3524 43.8869 19.6823 44.9126 21.4311C45.9383 23.1798 46.3128 25.2349 45.97 27.233C45.6272 29.2312 44.5891 31.0439 43.0392 32.3508C41.4893 33.6577 39.5274 34.3746 37.5 34.375ZM17.9687 17.9688C17.9669 19.6258 17.3078 21.2144 16.1361 22.3861C14.9644 23.5578 13.3758 24.2169 11.7187 24.2188C11.5115 24.2188 11.3128 24.1365 11.1663 23.9899C11.0198 23.8434 10.9375 23.6447 10.9375 23.4375C10.9375 23.2303 11.0198 23.0316 11.1663 22.8851C11.3128 22.7386 11.5115 22.6563 11.7187 22.6563C12.9615 22.6549 14.153 22.1605 15.0318 21.2818C15.9105 20.403 16.4048 19.2115 16.4062 17.9688V16.4063C16.4062 16.1991 16.4886 16.0003 16.6351 15.8538C16.7816 15.7073 16.9803 15.625 17.1875 15.625C17.3947 15.625 17.5934 15.7073 17.7399 15.8538C17.8864 16.0003 17.9687 16.1991 17.9687 16.4063V17.9688ZM39.0625 23.4375C39.0625 23.6447 38.9802 23.8434 38.8337 23.9899C38.6872 24.1364 38.4884 24.2188 38.2812 24.2188C36.6242 24.2169 35.0356 23.5578 33.8639 22.3861C32.6922 21.2144 32.0331 19.6258 32.0312 17.9688V16.4063C32.0312 16.1991 32.1136 16.0003 32.2601 15.8538C32.4066 15.7073 32.6053 15.625 32.8125 15.625C33.0197 15.625 33.2184 15.7073 33.3649 15.8538C33.5114 16.0003 33.5938 16.1991 33.5938 16.4063V17.9688C33.5952 19.2115 34.0895 20.403 34.9682 21.2818C35.847 22.1605 37.0385 22.6549 38.2812 22.6563C38.4884 22.6563 38.6872 22.7386 38.8337 22.8851C38.9802 23.0316 39.0625 23.2303 39.0625 23.4375Z" fill="white"/>
</svg>
