<svg width="50" height="50" viewBox="0 0 50 50" fill="none" xmlns="http://www.w3.org/2000/svg">
<path d="M45.8327 29.1667V25C45.8327 17.1433 45.8327 13.2149 43.3918 10.7741C40.9512 8.33334 37.0227 8.33334 29.166 8.33334H20.8327C12.9759 8.33334 9.04758 8.33334 6.60679 10.7741C4.16602 13.2149 4.16602 17.1433 4.16602 25V29.1667C4.16602 37.0233 4.16602 40.9519 6.60679 43.3925C9.04758 45.8333 12.9759 45.8333 20.8327 45.8333H29.166" stroke="white" stroke-width="2" stroke-linecap="round"/>
<path d="M14.584 8.33334V5.20834" stroke="white" stroke-width="2" stroke-linecap="round"/>
<path d="M35.416 8.33334V5.20834" stroke="white" stroke-width="2" stroke-linecap="round"/>
<path d="M37.5 43.75C40.9518 43.75 43.75 40.9518 43.75 37.5C43.75 34.0482 40.9518 31.25 37.5 31.25C34.0482 31.25 31.25 34.0482 31.25 37.5C31.25 40.9518 34.0482 43.75 37.5 43.75Z" stroke="white" stroke-width="2"/>
<path d="M42.709 42.7083L45.834 45.8333" stroke="white" stroke-width="2" stroke-linecap="round"/>
<path d="M5.20898 18.75H44.7923" stroke="white" stroke-width="2" stroke-linecap="round"/>
</svg>
