<svg width="50" height="50" viewBox="0 0 50 50" fill="none" xmlns="http://www.w3.org/2000/svg">
<path d="M22.6966 1.00242C29.8451 0.885236 36.4271 5.02586 39.3763 11.5493C40.431 13.893 40.9779 16.393 40.9779 18.9712C40.9779 19.0688 40.9779 19.6157 40.9779 20.4555C41.1146 21.061 41.6419 21.6665 42.1888 22.2134L42.8529 22.8384C44.0638 23.9907 44.6302 24.5571 44.806 24.772C45.1576 25.1821 45.3724 25.5923 45.5091 26.0024C45.9583 27.3696 44.8841 28.0337 44.5326 28.268C44.2005 28.4634 43.8294 28.6587 43.3997 28.854C43.0677 29.0102 42.6966 29.1665 42.3646 29.3227C42.3255 29.3423 42.2669 29.3618 42.2279 29.3813C41.9544 31.1977 40.9193 38.0727 40.8997 38.1313C40.763 39.2837 40.3724 40.1626 39.7279 40.7485C38.5951 41.7837 37.0716 41.7446 35.8412 41.7056C34.9232 41.686 34.1419 41.686 33.3021 41.686C33.2435 42.4087 33.1849 43.4829 33.1263 44.4204C33.0482 45.4555 32.9896 46.5298 32.931 47.3501C32.9115 47.7993 32.6771 48.2095 32.3255 48.5024C32.0521 48.7173 31.7005 48.8345 31.3685 48.8345C31.2708 48.8345 31.1537 48.8149 31.056 48.7954L11.0755 44.8306C10.0013 44.6157 9.22006 43.6587 9.22006 42.5649V38.9321C9.22006 34.6548 8.30209 30.3384 6.46616 26.1196C5.45053 23.7759 4.96225 21.2563 5.00131 18.6587C5.17709 8.89305 12.9701 1.15867 22.6966 1.00242ZM8.18491 25.3579C10.1185 29.811 11.0951 34.3813 11.0951 38.9321V42.5649C11.0951 42.7602 11.2318 42.936 11.4271 42.9751L31.0365 46.8813C31.0951 46.1196 31.1537 45.2016 31.2122 44.3032C31.4466 40.6899 31.4662 40.6509 31.5052 40.4946L31.7005 39.811H32.4232H32.599C33.6927 39.811 34.7083 39.7915 35.8802 39.8305C36.8568 39.8501 37.8724 39.8891 38.4388 39.3813C38.7318 39.1079 38.9271 38.6196 39.0052 37.9165C39.0247 37.7993 40.3919 28.7173 40.3919 28.7173L40.431 28.4438L40.6068 28.229L40.8216 27.9946C41.0365 27.8188 41.2708 27.7407 41.4466 27.6626L41.5638 27.6235C41.8958 27.4868 42.2279 27.3306 42.5794 27.1743C42.9505 26.9985 43.263 26.8423 43.5169 26.686C43.5951 26.647 43.6341 26.6079 43.6732 26.5688C43.6146 26.393 43.4974 26.2173 43.3216 25.9829C43.1654 25.7876 42.1107 24.772 41.5247 24.2251C41.2513 23.9712 41.0169 23.7368 40.8607 23.5805C40.0599 22.7798 39.2787 21.8813 39.1029 20.7095L39.0833 20.6313V20.5532C39.0833 19.6548 39.0833 19.0884 39.0833 18.9907C39.0833 16.6665 38.5951 14.4399 37.6576 12.3501C35.0013 6.51024 29.1029 2.7993 22.7162 2.89696C14.0052 3.03367 7.03256 9.96727 6.87631 18.6782C6.83725 21.0024 7.28647 23.268 8.18491 25.3579Z" fill="white"/>
<path d="M25.8242 8.61963H21C18.5977 8.61963 16.3516 9.55713 14.6328 11.2563C14.2227 11.686 13.8711 12.0962 13.5781 12.5063C12.543 14.0103 11.9961 15.7681 11.9961 17.604C11.9961 20.2798 13.1875 22.7993 15.2188 24.4985C14.8281 25.2798 14.3398 26.022 13.7539 26.686C13.4023 27.0767 13.3242 27.6431 13.5391 28.1118C13.7539 28.5806 14.2227 28.8931 14.75 28.8931C17.2891 28.8931 19.6719 28.0923 21.7031 26.5884H25.8242C28.2266 26.5884 30.4922 25.6509 32.1914 23.9517C33.8906 22.2524 34.8281 19.9868 34.8281 17.5845C34.8281 12.6626 30.7852 8.61963 25.8242 8.61963ZM30.8437 22.6431C29.4961 23.9907 27.7188 24.7329 25.8047 24.7329H21.0195L20.7656 24.9282C19.3398 26.0415 17.6992 26.7446 15.9414 26.9595C16.4687 26.2173 16.8984 25.4165 17.25 24.5767L17.5234 23.8735L16.918 23.4438C15.0234 22.1157 13.8906 19.9282 13.8906 17.6235C13.8906 16.1782 14.3203 14.772 15.1406 13.5806C15.375 13.2485 15.6484 12.9165 15.9609 12.5845C17.3086 11.2368 19.1055 10.4946 21 10.4946H25.8242C29.75 10.4946 32.9336 13.6782 32.9336 17.604C32.9336 19.5376 32.1914 21.3149 30.8437 22.6431Z" fill="white"/>
</svg>
